<?xml version="1.0" encoding="utf-8"?>
<!-- Generator: Adobe Illustrator 23.1.0, SVG Export Plug-In . SVG Version: 6.00 Build 0)  -->
<svg version="1.1" id="Layer_1" xmlns="http://www.w3.org/2000/svg" xmlns:xlink="http://www.w3.org/1999/xlink" x="0px" y="0px"
	 viewBox="0 0 512 512" style="enable-background:new 0 0 512 512;" xml:space="preserve">
<style type="text/css">
	.st0{fill:#B793C4;}
	.st1{fill:#F1E9F0;}
	.st2{fill:#210A40;}
</style>
<g>
	<g>
		<path class="st0" d="M511.5,512.7c-169.9,0-339.8,0-509.7,0c0-1.1,0-2.2,0-3.3c0-168.8,0-337.6,0-506.4c0-2.8-0.1-2.6,2.7-2.6
			c168,0,336,0,503.9,0c0.4,0,0.8,0,1.2,0c1.8,0,1.9,0,1.9,1.8c0,1,0,2,0,3.1c0,168.3,0,336.6,0,505
			C511.5,511.1,511.5,511.9,511.5,512.7z M23.1,256.4c0,77.1,0,154.3,0,231.4c0,3.1-0.4,2.7,2.7,2.7c154,0,308,0,462.1,0
			c3.3,0,2.9,0.5,2.9-2.9c0-154.1,0-308.2,0-462.3c0-0.5,0-1.1,0-1.6c0.1-1-0.2-1.6-1.3-1.4c-0.3,0-0.7,0-1,0
			c-154.2,0-308.3,0-462.5,0c-3.2,0-2.8-0.4-2.8,2.8C23.1,102.3,23.1,179.4,23.1,256.4z"/>
		<path class="st1" d="M511.5,512.7c0-0.8,0-1.6,0-2.5c0-168.3,0-336.6,0-505c0-1,0-2,0-3.1c0-1.8-0.1-1.8-1.9-1.8
			c-0.4,0-0.8,0-1.2,0c-168,0-336,0-503.9,0C1.7,0.4,1.8,0.2,1.8,3c0,168.8,0,337.6,0,506.4c0,1.1,0,2.2,0,3.3
			c-0.3-0.2-0.9,0.4-0.8-0.4c0-0.5,0-1,0-1.4C1,340.6,1,170.3,1,0c170.3,0,340.5,0,510.9,0c0,0.7,0,1.5,0,2.3
			c0,169.5,0,339.1,0,508.6C511.9,511.5,512.3,512.3,511.5,512.7z"/>
		<path class="st2" d="M23.1,256.4c0-77.1,0-154.2,0-231.2c0-3.2-0.5-2.8,2.8-2.8c154.2,0,308.3,0,462.5,0c0.3,0,0.7,0,1,0
			c1.1-0.1,1.4,0.4,1.3,1.4c0,0.5,0,1.1,0,1.6c0,154.1,0,308.2,0,462.3c0,3.4,0.4,2.9-2.9,2.9c-154,0-308,0-462.1,0
			c-3.1,0-2.7,0.4-2.7-2.7C23.1,410.7,23.1,333.6,23.1,256.4z M179.3,117.5c-6.7,0-13.5,0-20.2,0c-4,0-4,0-4.1,4.1
			c-0.2,5.6-0.7,11.1-2.2,16.6c-2.6,9.4-5.2,18.8-7.8,28.1c-6.7,24.1-13.4,48.2-20.1,72.4c-7.1,25.6-14.2,51.1-21.2,76.7
			c-3.5,12.7-7.1,25.4-10.6,38.2c-1.2,4.2-0.8,4.7,3.6,4.7c9.5,0,18.9,0,28.4,0c0.4,0,0.8,0,1.2,0c1.7-0.1,2.3-0.5,2.7-2.2
			c0.6-2.3,1.2-4.6,1.8-6.9c4.9-19,9.8-37.9,14.7-56.9c0.5-1.8,0.5-1.8,2.3-1.8c21.6,0,43.2,0,64.7,0c1.6,0,1.6-0.4,2.1,1.7
			c1.1,4.1,2.2,8.1,3.3,12.2c3.1,11.8,6.3,23.5,9.4,35.3c1.4,5.3,2.8,10.6,4.3,16c0.5,2,1.3,2.5,3.3,2.6c0.5,0,1,0,1.4,0
			c10.8,0,21.5,0,32.3,0c0.4,0,0.8,0,1.2,0c1.6-0.1,2.2-0.8,1.9-2.4c-0.1-0.7-0.3-1.5-0.6-2.2c-6.2-21.5-12.3-43-18.5-64.5
			c-5.3-18.4-10.5-36.8-15.8-55.1c-7.9-27.3-15.5-54.7-23.7-81.9c-3.2-10.6-6.1-21.3-9.2-32c-0.7-2.4-0.9-2.6-3.4-2.6
			C193.4,117.5,186.4,117.5,179.3,117.5z M362.7,277.3C362.7,277.3,362.7,277.3,362.7,277.3c6.3-0.1,12.5,0,18.8-0.1
			c7.3-0.1,14.6-0.1,21.8-0.7c2.1-0.2,4.2-0.3,6.3-0.6c2.9-0.4,3.3-0.9,3.8-3.7c1-4.5,1.2-9.2,1.4-13.8c0.5-10.1,0-20.1-2.3-30
			c-2.7-12-7.5-23-15.6-32.4c-8.2-9.5-18.6-15.2-30.8-17.5c-8.8-1.7-17.6-1.8-26.4-0.1c-8.5,1.6-16.2,4.8-23.3,9.7
			c-10.7,7.4-18.3,17.3-24,28.9c-7.1,14.4-10.4,29.7-11.2,45.6c-0.6,11.9,0,23.8,2.3,35.6c2.3,11.6,6.1,22.6,12.6,32.5
			c7.5,11.6,17.6,20,30.5,25.2c9.5,3.8,19.5,5.4,29.7,5.5c7.6,0.1,15.1-0.3,22.6-1.5c7.1-1.1,13.9-3,20.5-6c2.5-1.2,3.7-2.9,3.7-5.7
			c-0.1-3.9,0-7.9,0-11.8c0-4.8,0-9.5,0-14.3c0-2.6-0.6-2.9-2.9-2c-2.2,0.9-4.4,1.8-6.7,2.6c-5.6,1.9-11.3,3.1-17.1,3.5
			c-7.6,0.6-15.2,0.9-22.8-0.6c-13.9-2.8-24-10.3-29.5-23.7c-3-7.4-4.2-15.2-4.3-23.1c0-1.4,0-1.4,1.5-1.5c0.3,0,0.5,0,0.8,0
			C335.6,277.3,349.2,277.3,362.7,277.3z"/>
		<path class="st0" d="M179.3,117.5c7.1,0,14.2,0,21.2,0c2.5,0,2.7,0.2,3.4,2.6c3,10.7,6,21.4,9.2,32c8.2,27.2,15.8,54.6,23.7,81.9
			c5.3,18.4,10.6,36.7,15.8,55.1c6.2,21.5,12.3,43,18.5,64.5c0.2,0.7,0.4,1.4,0.6,2.2c0.2,1.6-0.3,2.3-1.9,2.4c-0.4,0-0.8,0-1.2,0
			c-10.8,0-21.5,0-32.3,0c-0.5,0-1,0-1.4,0c-2-0.1-2.8-0.6-3.3-2.6c-1.4-5.3-2.8-10.6-4.3-16c-3.1-11.8-6.3-23.5-9.4-35.3
			c-1.1-4.1-2.2-8.1-3.3-12.2c-0.6-2.1-0.5-1.7-2.1-1.7c-21.6,0-43.2,0-64.7,0c-1.8,0-1.8,0-2.3,1.8c-4.9,19-9.8,37.9-14.7,56.9
			c-0.6,2.3-1.2,4.6-1.8,6.9c-0.5,1.7-1,2.1-2.7,2.2c-0.4,0-0.8,0-1.2,0c-9.5,0-18.9,0-28.4,0c-4.4,0-4.8-0.5-3.6-4.7
			c3.5-12.7,7.1-25.4,10.6-38.2c7.1-25.6,14.1-51.1,21.2-76.7c6.7-24.1,13.4-48.2,20.1-72.4c2.6-9.4,5.2-18.8,7.8-28.1
			c1.5-5.4,2-11,2.2-16.6c0.1-4.1,0.1-4.1,4.1-4.1C165.8,117.5,172.6,117.5,179.3,117.5z M179.6,152.4c-0.1,0.3-0.1,0.5-0.2,0.7
			c-2.7,14.4-6,28.6-9.6,42.8c-4.8,18.9-9.7,37.8-14.5,56.7c-0.6,2.3-0.6,2.3,1.8,2.3c15.4,0,30.9,0,46.3,0c0.3,0,0.5,0,0.8,0
			c0.8,0.1,1.1-0.3,0.9-1.1c-0.5-1.9-1-3.8-1.4-5.7c-4.6-18-9.3-36.1-13.9-54.1c-3.4-13.3-6.8-26.6-9.6-40.1
			C180.2,153.3,180.3,152.8,179.6,152.4z"/>
		<path class="st0" d="M362.7,277.3c-13.5,0-27.1,0-40.6,0c-0.3,0-0.5,0-0.8,0c-1.5,0.1-1.5,0.1-1.5,1.5c0.2,7.9,1.3,15.7,4.3,23.1
			c5.4,13.4,15.5,20.9,29.5,23.7c7.6,1.5,15.2,1.2,22.8,0.6c5.8-0.5,11.6-1.7,17.1-3.5c2.3-0.8,4.4-1.7,6.7-2.6
			c2.3-0.9,2.9-0.6,2.9,2c0,4.8,0,9.5,0,14.3c0,3.9-0.1,7.9,0,11.8c0.1,2.8-1.1,4.6-3.7,5.7c-6.5,3-13.4,4.9-20.5,6
			c-7.5,1.2-15,1.6-22.6,1.5c-10.2-0.2-20.2-1.7-29.7-5.5c-12.9-5.1-23-13.6-30.5-25.2c-6.5-9.9-10.3-20.9-12.6-32.5
			c-2.3-11.7-3-23.6-2.3-35.6c0.9-15.9,4.2-31.3,11.2-45.6c5.7-11.6,13.3-21.5,24-28.9c7.1-4.9,14.9-8.1,23.3-9.7
			c8.8-1.7,17.6-1.6,26.4,0.1c12.2,2.4,22.6,8.1,30.8,17.5c8.1,9.4,12.9,20.4,15.6,32.4c2.2,9.9,2.8,19.9,2.3,30
			c-0.2,4.6-0.5,9.2-1.4,13.8c-0.6,2.8-1,3.2-3.8,3.7c-2.1,0.3-4.2,0.5-6.3,0.6c-7.3,0.5-14.5,0.5-21.8,0.7
			C375.2,277.3,369,277.2,362.7,277.3C362.7,277.3,362.7,277.3,362.7,277.3z M320.1,246.9c0.9,0.5,1.7,0.3,2.5,0.3
			c15.7,0,31.4,0,47.1,0c2.2,0,4.4,0,6.5-0.1c2.3-0.1,2.3-0.1,2.4-2.2c0.4-8.1-1.2-15.8-5.3-22.9c-2-3.5-4.6-6.5-8.1-8.7
			c-5.5-3.5-11.6-4.5-18-3.6c-6.3,0.8-11.7,3.5-16,8.2c-3.1,3.3-5.3,7.2-7,11.4C322.1,234.9,320.7,240.8,320.1,246.9z"/>
		<path class="st2" d="M179.6,152.4c0.6,0.5,0.6,1,0.7,1.4c2.8,13.5,6.2,26.8,9.6,40.1c4.6,18.1,9.3,36.1,13.9,54.1
			c0.5,1.9,1,3.8,1.4,5.7c0.2,0.8,0,1.2-0.9,1.1c-0.3,0-0.5,0-0.8,0c-15.4,0-30.9,0-46.3,0c-2.4,0-2.4,0-1.8-2.3
			c4.8-18.9,9.7-37.8,14.5-56.7c3.6-14.2,6.9-28.4,9.6-42.8C179.5,152.8,179.6,152.7,179.6,152.4z"/>
		<path class="st2" d="M320.1,246.9c0.5-6.1,2-12,4.2-17.7c1.7-4.2,3.9-8.1,7-11.4c4.3-4.7,9.6-7.4,16-8.2c6.4-0.8,12.5,0.1,18,3.6
			c3.5,2.2,6.1,5.2,8.1,8.7c4.1,7.1,5.7,14.8,5.3,22.9c-0.1,2.2-0.2,2.2-2.4,2.2c-2.2,0.1-4.4,0.1-6.5,0.1c-15.7,0-31.4,0-47.1,0
			C321.8,247.1,321,247.3,320.1,246.9z"/>
	</g>
</g>
</svg>
