<?xml version="1.0" encoding="utf-8"?>
<!-- Generator: Adobe Illustrator 23.1.0, SVG Export Plug-In . SVG Version: 6.00 Build 0)  -->
<svg version="1.1" id="Capa_1" xmlns="http://www.w3.org/2000/svg" xmlns:xlink="http://www.w3.org/1999/xlink" x="0px" y="0px"
	 viewBox="0 0 512 512" style="enable-background:new 0 0 512 512;" xml:space="preserve">
<style type="text/css">
	.st0{fill:#31A8FF;}
	.st1{fill:#001E36;}
	.st2{fill:#E776FC;}
	.st3{fill:#2A0034;}
</style>
<g>
	<path class="st0" d="M512,507.2V4.8c0-5.4,0.6-4.7-4.6-4.7H5.2C0,0,0,0,0,5.3V507c0,5.7-0.7,5,4.7,5h502.6
		C512.7,512,512,512.4,512,507.2z M489.8,489.9C489.8,490,489.8,490,489.8,489.9c-0.7,0.2-1.8,0.1-3.9,0.1H255.8
		c-76.6,0-153.2,0-229.6-0.1c-5.3,0-4.7,0.6-4.7-4.6V26.6c0-2.7-0.1-3.9,0.5-4.4c0.6-0.5,1.7-0.4,4.1-0.4H486c5.3,0,4.6-0.6,4.6,4.7
		v458.7C490.6,488.6,490.8,489.6,489.8,489.9z"/>
	<path class="st1" d="M132.8,121.6c0-1.3,0.1-2.2,0.3-2.8C132.8,119.3,132.8,120.2,132.8,121.6z M170.6,275.8v0.2
		c0-0.6,0.1-1.3,0-1.9C170.7,274.7,170.6,275.3,170.6,275.8z M26.1,489.9c-5.3,0-4.7,0.6-4.7-4.6V26.6c0-2.7-0.1-3.9,0.5-4.4
		c-0.8,0.4-0.7,1.5-0.7,4.5v458.7c0,5.2-0.5,4.6,4.7,4.6h229.9C179.2,490,102.5,490,26.1,489.9z M306.4,196.8
		c-0.2-2.3-0.2-3.4,0.4-4.1c-0.7,0.7-0.7,1.8-0.5,4.2c0.6,8,0.8,15.8,0.8,23.8v58.7c0-19.5,0-39.1,0.1-58.9
		C307.3,212.6,307,204.8,306.4,196.8z M486,490H255.8c76.7,0,153.5,0,230,0.1c2.3,0,3.5,0.1,4.1-0.2C489.2,490.2,488,490,486,490z"
		/>
	<path class="st2" d="M132.8,121.6c0-1.3,0.1-2.2,0.3-2.8C132.8,119.3,132.8,120.2,132.8,121.6z M170.6,275.8v0.2
		c0-0.6,0.1-1.3,0-1.9C170.7,274.7,170.6,275.3,170.6,275.8z M228.1,165.2c0.5,0.6,1,1.2,1.4,1.9C229,166.4,228.6,165.8,228.1,165.2
		z"/>
	<path class="st1" d="M490.3,26.7c0-5.3,0.6-4.7-4.6-4.7H25.8c-2.1,0-3.2-0.1-3.9,0.3c-0.6,0.5-0.5,1.7-0.5,4.4v458.7
		c0,5.2-0.6,4.6,4.7,4.6c76.4,0.1,153,0.1,229.6,0.1H486c2,0,3.2,0.1,3.8-0.1c0,0,0,0,0,0c0.7-0.4,0.5-1.6,0.5-4.5V26.7z M133,118.7
		c-0.2,0.6-0.2,1.6-0.3,2.8C132.8,120.2,132.8,119.3,133,118.7z M132.7,237.5h0.1c0,0-0.1,0-0.1,0.2V237.5z M170.6,276.1v-0.2
		c0-0.6,0-1.2,0-1.7c0-0.2,0-0.5,0-0.7c0-0.1,0-0.3,0-0.4c0,0.1,0,0.1,0,0.2c0,0.3,0,0.6,0,1C170.7,274.8,170.6,275.5,170.6,276.1z
		 M228.1,165.2c0.5,0.6,1,1.2,1.4,1.9C229,166.4,228.6,165.8,228.1,165.2z M307.2,220.6c-0.1,19.7-0.1,39.3-0.1,58.9v-58.7
		c0-8-0.2-15.8-0.8-23.8c-0.2-2.5-0.2-3.5,0.5-4.2c-0.6,0.7-0.6,1.8-0.4,4.1C307,204.8,307.3,212.6,307.2,220.6z"/>
	<path class="st1" d="M307.2,220.6c-0.1,19.7-0.1,39.3-0.1,58.9v-58.7c0-8-0.2-15.8-0.8-23.8c-0.2-2.5-0.2-3.5,0.5-4.2
		c-0.6,0.7-0.6,1.8-0.4,4.1C307,204.8,307.3,212.6,307.2,220.6z"/>
	<path class="st3" d="M229.5,167c-0.4-0.6-0.9-1.3-1.4-1.9C228.6,165.8,229,166.4,229.5,167z"/>
	<path class="st0" d="M167.6,282c0,3,0,5.5,0,7.9c0,14.8-0.1,29.7,0.1,44.5c0.1,4.4-1.3,5.9-5.7,5.7c-8.8-0.3-17.7-0.4-26.5,0
		c-5,0.2-6.5-1.2-6.5-6.3c0.2-41.3,0.1-82.7,0.1-124c0-16.3,0.1-32.7,0-49c0-3.2,0.6-4.9,4.3-4.9c19.8-0.1,39.7-0.7,59.5-0.6
		c13.8,0.1,27.1,3,39.4,9.8c17.9,9.9,27.9,25.2,29.3,45.4c0.7,9.1-0.1,18.8-2.5,27.6c-6.4,23.3-23.6,35.9-46.3,40.5
		c-12.6,2.6-25.8,2.4-38.7,3.4C172.2,282.2,170.3,282,167.6,282z M167.6,218.2c0,8.7-0.1,17.3,0.1,26c0,1.4,1.7,4,2.7,4.1
		c12.3,0.5,24.7,1.3,36.5-3.4c7.8-3.1,13.6-8.3,16.1-16.6c5.5-18.7-3.8-34.8-23-38c-9.4-1.5-19.2-0.8-28.8-1.1
		c-3-0.1-3.5,1.6-3.5,4.1C167.7,201.5,167.6,209.8,167.6,218.2z"/>
	<path class="st0" d="M373.4,236c-7.9-2.2-15.6-5-23.5-6.2c-7.5-1.1-15.2-0.9-22.8-0.6c-4.2,0.2-8.2,2.2-9.2,7.1
		c-1,4.9,1.8,8.1,5.6,10.1c5.4,2.9,11.1,5.3,16.6,7.9c8.1,3.9,16.5,7.3,24.2,11.8c26.5,15.5,22.9,55.1-3.3,68.9
		c-14.9,7.8-30.9,9.1-47.2,7.4c-8.9-0.9-17.6-3.5-26.3-5.6c-4.1-1-5.8-3.6-5.6-8c0.3-9.3,0.1-18.6,0.1-29c2.2,1,3.8,1.7,5.3,2.4
		c13.6,7.1,28.2,10,43.5,9c8.2-0.5,13-3.5,13.9-8.4c0.9-4.5-2.3-8.6-10-12.1c-7.6-3.4-15.5-6.2-22.9-9.9c-5.6-2.8-11.3-6-16.1-9.9
		c-22.6-18.2-18.6-52.3,7.6-66.4c13-7,27.1-8.1,41.3-6.9c8.6,0.7,17,2.7,25.5,4.5c1.6,0.3,3.9,2.7,3.9,4.2c0.3,9.5,0.1,19,0.1,28.5
		C374,235.3,373.6,235.8,373.4,236z"/>
</g>
</svg>
