<?xml version="1.0" encoding="utf-8"?>
<!-- Generator: Adobe Illustrator 23.1.0, SVG Export Plug-In . SVG Version: 6.00 Build 0)  -->
<svg version="1.1" id="Layer_1" xmlns="http://www.w3.org/2000/svg" xmlns:xlink="http://www.w3.org/1999/xlink" x="0px" y="0px"
	 viewBox="0 0 447.7 447.7" style="enable-background:new 0 0 447.7 447.7;" xml:space="preserve">
<style type="text/css">
	.st0{fill:#FE9900;}
	.st1{fill:#2A0034;}
	.st2{fill:#330000;}
</style>
<g>
	<path class="st0" d="M447.7,443.5V4.1c0-4.8,0.5-4.1-4-4.1H4.5C0,0,0,0,0,4.6v438.7c0,5-0.6,4.3,4.1,4.3h439.5
		C448.3,447.6,447.7,448,447.7,443.5z M428.3,428.4c-0.5,0.2-1.6,0.1-3.4,0.1H223.6c-67,0-134,0-200.8-0.1c-4.6,0-4.1,0.5-4.1-4
		V23.2c0-2.3-0.1-3.3,0.4-3.8c0,0,0,0,0,0c0.5-0.4,1.5-0.3,3.6-0.3h402.1c4.6,0,4-0.5,4,4.1v401.1
		C428.9,427.2,429.1,428.1,428.3,428.4z"/>
	<path class="st1" d="M424.9,428.5H223.6c67.1,0,134.2,0,201.1,0.1c2.1,0,3.1,0.1,3.6-0.2C427.8,428.6,426.8,428.5,424.9,428.5z
		 M18.7,424.3V23.2c0-2.3-0.1-3.3,0.4-3.8c-0.7,0.4-0.6,1.4-0.6,3.9v401.1c0,4.5-0.4,4,4.1,4h201c-67,0-134,0-200.8-0.1
		C18.2,428.4,18.7,428.9,18.7,424.3z"/>
	<path class="st2" d="M428.3,428.4c-0.5,0.2-1.6,0.1-3.4,0.1H223.6c-67,0-134,0-200.8-0.1c-4.6,0-4.1,0.5-4.1-4V23.2
		c0-2.3-0.1-3.3,0.4-3.8c0,0,0,0,0,0c0.5-0.3,1.5-0.2,3.4-0.2h402.2c4.5,0,4-0.5,4,4.1v401.1C428.7,427,428.9,428,428.3,428.4z"/>
</g>
<path class="st0" d="M195,132.1c6.2,0,12.5,0,18.7,0c2.3,0,2.4,0.1,3.1,2.2c18.4,51.8,36.7,103.6,55.1,155.4
	c0.2,0.5,0.4,1.1,0.5,1.7c0.3,1.5-0.1,2-1.7,2.1c-0.3,0-0.6,0-0.9,0c-10.1,0-20.3,0-30.4,0c-2.1,0-2.6-0.4-3.3-2.4
	c-3.9-11.3-7.8-22.7-11.8-34c-0.6-1.8-0.1-1.7-2.4-1.7c-17.7,0-35.5,0-53.2,0c-2.4,0-1.9-0.1-2.5,1.8c-3.6,11.1-7.2,22.3-10.8,33.4
	c-0.8,2.5-1.3,2.9-4,2.9c-8.9,0-17.8,0-26.8,0c-3,0-3.5-0.7-2.5-3.6c5.8-16.7,11.6-33.4,17.4-50.1c10.4-30,20.8-60,31.3-90
	c1.8-5.1,2.8-10.2,2.8-15.6c0-1.9,0.3-2.2,2.3-2.2C182.3,132.1,188.6,132.1,195,132.1z M214.7,224.2c-6.7-21.1-13.6-42-19.4-63.2
	c0-0.2-0.2-0.3-0.4-0.6c-0.2,0.7-0.4,1.2-0.5,1.6c-1.4,6.8-3.3,13.5-5.4,20.1c-4.4,13.6-8.1,27.4-12.7,40.9
	c-0.1,0.4-0.3,0.8-0.1,1.3C188.9,224.2,201.6,224.2,214.7,224.2z"/>
<path class="st0" d="M289.4,232.8c0-19.1,0-38.3,0-57.4c0-3.6,0-3.7,3.7-3.7c9,0,18.1,0,27.1,0c0.5,0,0.9,0,1.4,0
	c1.3,0.1,1.9,0.6,2,1.9c0,0.5,0,0.9,0,1.4c0,38.6,0,77.1,0,115.7c0,3.2-0.3,3.5-3.5,3.5c-9.1,0-18.2,0-27.3,0c-0.5,0-1.1,0-1.6,0
	c-1.1-0.1-1.8-0.8-1.9-1.9c-0.1-0.6,0-1.3,0-1.9C289.4,271.2,289.4,252,289.4,232.8z"/>
<path class="st0" d="M306.7,158.8c-2,0.1-4.2-0.2-6.4-0.9c-8.2-2.7-12-9.4-12.6-16.7c-0.2-2.3-0.1-4.5,0.5-6.8
	c1.8-7.3,8.1-12.9,15.6-13.9c2.6-0.3,5.2-0.3,7.8,0.3c6,1.2,10.2,4.7,12.6,10.3c2.3,5.4,2.3,10.9,0.1,16.4
	C321.1,155.6,313.7,159.2,306.7,158.8z"/>
</svg>
